<mxfile host="65bd71144e">
    <diagram id="RDVXYpl_ZH0LqLmESyfW" name="Page-1">
        <mxGraphModel dx="1086" dy="704" grid="1" gridSize="10" guides="1" tooltips="1" connect="1" arrows="1" fold="1" page="1" pageScale="1" pageWidth="850" pageHeight="1100" math="0" shadow="0">
            <root>
                <mxCell id="0"/>
                <mxCell id="1" parent="0"/>
                <mxCell id="3" value="USER" style="shape=umlLifeline;perimeter=lifelinePerimeter;whiteSpace=wrap;html=1;container=1;collapsible=0;recursiveResize=0;outlineConnect=0;" parent="1" vertex="1">
                    <mxGeometry x="70" y="100" width="100" height="660" as="geometry"/>
                </mxCell>
                <mxCell id="4" value="WEBSITE" style="shape=umlLifeline;perimeter=lifelinePerimeter;whiteSpace=wrap;html=1;container=1;collapsible=0;recursiveResize=0;outlineConnect=0;size=40;" parent="1" vertex="1">
                    <mxGeometry x="260" y="100" width="165" height="660" as="geometry"/>
                </mxCell>
                <mxCell id="31" value="Browse Stories" style="html=1;verticalAlign=bottom;endArrow=block;" edge="1" parent="4">
                    <mxGeometry y="20" width="80" relative="1" as="geometry">
                        <mxPoint x="-142" y="220" as="sourcePoint"/>
                        <mxPoint x="80" y="220" as="targetPoint"/>
                        <mxPoint as="offset"/>
                        <Array as="points">
                            <mxPoint x="-22" y="220"/>
                        </Array>
                    </mxGeometry>
                </mxCell>
                <mxCell id="47" value="" style="endArrow=block;endFill=1;html=1;edgeStyle=orthogonalEdgeStyle;align=left;verticalAlign=top;" edge="1" parent="4" target="3">
                    <mxGeometry x="-1" relative="1" as="geometry">
                        <mxPoint x="87.24000000000001" y="399.997037037037" as="sourcePoint"/>
                        <mxPoint x="-100.00074074074075" y="399.997037037037" as="targetPoint"/>
                        <Array as="points">
                            <mxPoint x="-90" y="400"/>
                            <mxPoint x="-90" y="400"/>
                        </Array>
                    </mxGeometry>
                </mxCell>
                <mxCell id="5" value="STORY SERVICE" style="shape=umlLifeline;perimeter=lifelinePerimeter;whiteSpace=wrap;html=1;container=1;collapsible=0;recursiveResize=0;outlineConnect=0;" parent="1" vertex="1">
                    <mxGeometry x="480" y="100" width="100" height="660" as="geometry"/>
                </mxCell>
                <mxCell id="52" value="submitFeedback(storyID, feedback)" style="text;html=1;align=center;verticalAlign=middle;resizable=0;points=[];autosize=1;strokeColor=none;fillColor=none;" vertex="1" parent="5">
                    <mxGeometry x="-130" y="470" width="210" height="30" as="geometry"/>
                </mxCell>
                <mxCell id="57" value="" style="endArrow=block;endFill=1;html=1;edgeStyle=orthogonalEdgeStyle;align=left;verticalAlign=top;" edge="1" parent="5" target="3">
                    <mxGeometry x="-1" relative="1" as="geometry">
                        <mxPoint x="225.49" y="619.9970370370368" as="sourcePoint"/>
                        <mxPoint x="-130" y="620" as="targetPoint"/>
                        <Array as="points">
                            <mxPoint x="-230" y="620"/>
                            <mxPoint x="-230" y="620"/>
                        </Array>
                    </mxGeometry>
                </mxCell>
                <mxCell id="58" value="Feedback Confirmation" style="edgeLabel;html=1;align=center;verticalAlign=middle;resizable=0;points=[];" connectable="0" vertex="1" parent="57">
                    <mxGeometry x="-0.1125" y="-2" relative="1" as="geometry">
                        <mxPoint x="-205" y="-8" as="offset"/>
                    </mxGeometry>
                </mxCell>
                <mxCell id="6" value="FEEDBACK SERVICE" style="shape=umlLifeline;perimeter=lifelinePerimeter;whiteSpace=wrap;html=1;container=1;collapsible=0;recursiveResize=0;outlineConnect=0;" parent="1" vertex="1">
                    <mxGeometry x="650" y="100" width="100" height="660" as="geometry"/>
                </mxCell>
                <mxCell id="9" value="LogIn(Username, Password)" style="html=1;verticalAlign=bottom;endArrow=block;" parent="1" target="4" edge="1">
                    <mxGeometry y="20" width="80" relative="1" as="geometry">
                        <mxPoint x="120" y="200" as="sourcePoint"/>
                        <mxPoint x="300" y="200" as="targetPoint"/>
                        <mxPoint as="offset"/>
                    </mxGeometry>
                </mxCell>
                <mxCell id="15" value="" style="shape=umlActor;verticalLabelPosition=bottom;verticalAlign=top;html=1;" vertex="1" parent="1">
                    <mxGeometry x="105" y="20" width="30" height="60" as="geometry"/>
                </mxCell>
                <mxCell id="22" value="" style="endArrow=block;endFill=1;html=1;edgeStyle=orthogonalEdgeStyle;align=left;verticalAlign=top;" edge="1" parent="1" source="4" target="5">
                    <mxGeometry x="-1" relative="1" as="geometry">
                        <mxPoint x="330" y="200" as="sourcePoint"/>
                        <mxPoint x="440" y="200" as="targetPoint"/>
                        <Array as="points">
                            <mxPoint x="440" y="240"/>
                            <mxPoint x="440" y="240"/>
                        </Array>
                    </mxGeometry>
                </mxCell>
                <mxCell id="24" value="authenticateUser(username,password)" style="text;html=1;align=center;verticalAlign=middle;resizable=0;points=[];autosize=1;strokeColor=none;fillColor=none;" vertex="1" parent="1">
                    <mxGeometry x="340" y="210" width="230" height="30" as="geometry"/>
                </mxCell>
                <mxCell id="26" value="" style="endArrow=block;endFill=1;html=1;edgeStyle=orthogonalEdgeStyle;align=left;verticalAlign=top;" edge="1" parent="1" source="5" target="4">
                    <mxGeometry x="-1" relative="1" as="geometry">
                        <mxPoint x="460" y="270" as="sourcePoint"/>
                        <mxPoint x="520" y="320" as="targetPoint"/>
                        <Array as="points">
                            <mxPoint x="450" y="280"/>
                            <mxPoint x="450" y="280"/>
                        </Array>
                    </mxGeometry>
                </mxCell>
                <mxCell id="30" value="authenticationStatus" style="text;html=1;align=center;verticalAlign=middle;resizable=0;points=[];autosize=1;strokeColor=none;fillColor=none;" vertex="1" parent="1">
                    <mxGeometry x="355" y="245" width="130" height="30" as="geometry"/>
                </mxCell>
                <mxCell id="35" value="Select Story(storyID)" style="html=1;verticalAlign=bottom;endArrow=block;" edge="1" parent="1">
                    <mxGeometry y="20" width="80" relative="1" as="geometry">
                        <mxPoint x="118" y="380" as="sourcePoint"/>
                        <mxPoint x="340" y="380" as="targetPoint"/>
                        <mxPoint as="offset"/>
                    </mxGeometry>
                </mxCell>
                <mxCell id="37" value="returnStories" style="text;html=1;align=center;verticalAlign=middle;resizable=0;points=[];autosize=1;strokeColor=none;fillColor=none;" vertex="1" parent="1">
                    <mxGeometry x="390" y="340" width="90" height="30" as="geometry"/>
                </mxCell>
                <mxCell id="28" value="" style="endArrow=block;endFill=1;html=1;edgeStyle=orthogonalEdgeStyle;align=left;verticalAlign=top;" edge="1" parent="1">
                    <mxGeometry x="-1" relative="1" as="geometry">
                        <mxPoint x="528.75" y="370" as="sourcePoint"/>
                        <mxPoint x="341.25" y="370" as="targetPoint"/>
                        <Array as="points"/>
                    </mxGeometry>
                </mxCell>
                <mxCell id="40" value="fetchStories()" style="html=1;verticalAlign=bottom;endArrow=block;" edge="1" parent="1" source="4" target="5">
                    <mxGeometry y="20" width="80" relative="1" as="geometry">
                        <mxPoint x="340" y="360" as="sourcePoint"/>
                        <mxPoint x="562.0000000000002" y="360" as="targetPoint"/>
                        <mxPoint as="offset"/>
                        <Array as="points">
                            <mxPoint x="430" y="340"/>
                        </Array>
                    </mxGeometry>
                </mxCell>
                <mxCell id="41" value="getStory(storyID)" style="html=1;verticalAlign=bottom;endArrow=block;" edge="1" parent="1">
                    <mxGeometry y="20" width="80" relative="1" as="geometry">
                        <mxPoint x="340" y="430" as="sourcePoint"/>
                        <mxPoint x="530" y="430" as="targetPoint"/>
                        <mxPoint as="offset"/>
                    </mxGeometry>
                </mxCell>
                <mxCell id="42" value="" style="endArrow=block;endFill=1;html=1;edgeStyle=orthogonalEdgeStyle;align=left;verticalAlign=top;" edge="1" parent="1">
                    <mxGeometry x="-1" relative="1" as="geometry">
                        <mxPoint x="527.24" y="469.997037037037" as="sourcePoint"/>
                        <mxPoint x="339.99925925925925" y="469.997037037037" as="targetPoint"/>
                        <Array as="points">
                            <mxPoint x="447.74" y="469.96000000000004"/>
                            <mxPoint x="447.74" y="469.96000000000004"/>
                        </Array>
                    </mxGeometry>
                </mxCell>
                <mxCell id="45" value="returnStoryContent()" style="edgeLabel;html=1;align=center;verticalAlign=middle;resizable=0;points=[];" vertex="1" connectable="0" parent="42">
                    <mxGeometry x="-0.1125" y="-2" relative="1" as="geometry">
                        <mxPoint x="-4" y="-8" as="offset"/>
                    </mxGeometry>
                </mxCell>
                <mxCell id="46" value="Read Story" style="html=1;verticalAlign=bottom;endArrow=block;" edge="1" parent="1">
                    <mxGeometry y="20" width="80" relative="1" as="geometry">
                        <mxPoint x="118" y="450" as="sourcePoint"/>
                        <mxPoint x="340" y="450" as="targetPoint"/>
                        <mxPoint as="offset"/>
                        <Array as="points"/>
                    </mxGeometry>
                </mxCell>
                <mxCell id="48" value="Display Story Content" style="text;html=1;align=center;verticalAlign=middle;resizable=0;points=[];autosize=1;strokeColor=none;fillColor=none;" vertex="1" parent="1">
                    <mxGeometry x="170" y="475" width="140" height="30" as="geometry"/>
                </mxCell>
                <mxCell id="49" value="" style="endArrow=block;endFill=1;html=1;edgeStyle=orthogonalEdgeStyle;align=left;verticalAlign=top;" edge="1" parent="1" target="4">
                    <mxGeometry x="-1" relative="1" as="geometry">
                        <mxPoint x="120" y="560" as="sourcePoint"/>
                        <mxPoint x="280" y="560" as="targetPoint"/>
                        <Array as="points">
                            <mxPoint x="290" y="560"/>
                            <mxPoint x="290" y="560"/>
                        </Array>
                    </mxGeometry>
                </mxCell>
                <mxCell id="51" value="Submit Feedback(storyID, feedback)" style="text;html=1;align=center;verticalAlign=middle;resizable=0;points=[];autosize=1;strokeColor=none;fillColor=none;" vertex="1" parent="1">
                    <mxGeometry x="120" y="530" width="220" height="30" as="geometry"/>
                </mxCell>
                <mxCell id="53" value="" style="endArrow=block;endFill=1;html=1;edgeStyle=orthogonalEdgeStyle;align=left;verticalAlign=top;" edge="1" parent="1" target="6">
                    <mxGeometry x="-1" relative="1" as="geometry">
                        <mxPoint x="340" y="590" as="sourcePoint"/>
                        <mxPoint x="562" y="590" as="targetPoint"/>
                        <Array as="points">
                            <mxPoint x="340" y="600"/>
                        </Array>
                    </mxGeometry>
                </mxCell>
                <mxCell id="55" value="" style="endArrow=block;endFill=1;html=1;edgeStyle=orthogonalEdgeStyle;align=left;verticalAlign=top;" edge="1" parent="1" target="4">
                    <mxGeometry x="-1" relative="1" as="geometry">
                        <mxPoint x="697.24" y="639.997037037037" as="sourcePoint"/>
                        <mxPoint x="509.99925925925913" y="639.997037037037" as="targetPoint"/>
                        <Array as="points">
                            <mxPoint x="450" y="640"/>
                            <mxPoint x="450" y="640"/>
                        </Array>
                    </mxGeometry>
                </mxCell>
                <mxCell id="56" value="feedbackStatus" style="edgeLabel;html=1;align=center;verticalAlign=middle;resizable=0;points=[];" connectable="0" vertex="1" parent="55">
                    <mxGeometry x="-0.1125" y="-2" relative="1" as="geometry">
                        <mxPoint x="-80" y="-8" as="offset"/>
                    </mxGeometry>
                </mxCell>
                <mxCell id="59" value="" style="shape=umlActor;verticalLabelPosition=bottom;verticalAlign=top;html=1;" vertex="1" parent="1">
                    <mxGeometry x="105" y="770" width="30" height="60" as="geometry"/>
                </mxCell>
                <mxCell id="63" value="WEBSITE" style="rounded=0;whiteSpace=wrap;html=1;" vertex="1" parent="1">
                    <mxGeometry x="290" y="760" width="120" height="60" as="geometry"/>
                </mxCell>
                <mxCell id="64" value="STORY SERVICE" style="rounded=0;whiteSpace=wrap;html=1;" vertex="1" parent="1">
                    <mxGeometry x="470" y="760" width="120" height="60" as="geometry"/>
                </mxCell>
                <mxCell id="65" value="FEEDBACK SERVICE" style="rounded=0;whiteSpace=wrap;html=1;" vertex="1" parent="1">
                    <mxGeometry x="640" y="760" width="120" height="60" as="geometry"/>
                </mxCell>
            </root>
        </mxGraphModel>
    </diagram>
</mxfile>